# xmcd
#
# Track frame offsets: 
#        150
#        10413
#        26727
#        68368
#        97423
#        120071
#        145921
#        162112
#        186912
#        205759
#
# Disc length: 3109 seconds
#
# Revision: 0
# Processed by: cddbd v1.5.2PL0 Copyright (c) Steve Scherf et al.
# Submitted via: ExactAudioCopy v0.99pb4
#
DISCID=800c230a
DTITLE=Peter McGraw - Follow Me To The Blues
DYEAR=2008
DGENRE=Blues
TTITLE0=Follow Me To The Blues
TTITLE1=Sweet Home Chicago
TTITLE2=The Sky Is Crying
TTITLE3=Hoochie Coochie Man
TTITLE4=I Got A Woman
TTITLE5=Bring It On Home To Me
TTITLE6=Unchain My Heart
TTITLE7=I'd Rather Go Blind
TTITLE8=Let The Good Times Roll
TTITLE9=As The Years Go Passing By
EXTD=
EXTT0=
EXTT1=
EXTT2=
EXTT3=
EXTT4=
EXTT5=
EXTT6=
EXTT7=
EXTT8=
EXTT9=
PLAYORDER=
